<svg width="102" height="32" viewBox="0 0 102 32" fill="none" xmlns="http://www.w3.org/2000/svg">
<path fill-rule="evenodd" clip-rule="evenodd" d="M28.9219 22.0424L28.922 22.0426L28.922 22.0426C28.9829 22.201 29.0438 22.3594 29.1048 22.5016C29.5111 23.6698 29.6127 24.7365 29.2572 25.854C28.9016 28.1905 27.3778 30.2222 25.1429 31.0857C24.381 31.4413 23.4667 31.5937 22.6032 31.5937C22.3492 31.5937 22.0445 31.5937 21.7905 31.5429C20.7746 31.4413 19.708 31.0857 18.6413 30.4762C17.3714 29.7143 16.1016 28.6984 14.7302 27.1746C13.3587 28.6984 12.1397 29.7651 10.8191 30.4762C9.80319 31.0857 8.73652 31.4413 7.66986 31.5429C7.54287 31.5429 7.40319 31.5556 7.26351 31.5683C7.12382 31.581 6.98414 31.5937 6.85716 31.5937C5.99367 31.5937 5.13017 31.4413 4.31747 31.0857C2.13335 30.2222 0.558744 28.2413 0.203189 25.854C1.42008e-05 24.7365 0.152395 23.619 0.558744 22.4508C0.71112 22.0445 0.863495 21.6889 1.01587 21.3334L1.01589 21.3333L1.01591 21.3333L1.01592 21.3333L1.01593 21.3332C1.26988 20.7745 1.52383 20.2158 1.727 19.7079L1.77779 19.6571C3.96192 14.8825 6.34922 10.0571 8.78732 5.33333L8.8889 5.13016C9.14287 4.67302 9.39684 4.16508 9.65081 3.65714C9.95557 3.04762 10.3111 2.48889 10.8191 1.87937C11.8857 0.711111 13.308 0 14.8826 0C16.4064 0 17.8794 0.711111 18.8953 1.98095C19.3492 2.48027 19.6408 3.02015 19.9152 3.5281C19.9479 3.58854 19.9803 3.64852 20.0127 3.70794L20.0128 3.70804C20.2667 4.21594 20.5207 4.72384 20.7746 5.18095L20.8762 5.38413C23.3651 10.1587 25.7016 14.9841 27.8857 19.7079L27.9365 19.7587C28.1397 20.2667 28.3937 20.8254 28.6476 21.3841C28.7391 21.567 28.8305 21.8047 28.9219 22.0424ZM53.5365 7.92381C53.5365 9.04127 52.6222 10.0063 51.454 10.0063C50.2857 10.0063 49.3714 9.09206 49.3714 7.92381C49.3714 6.75556 50.2349 5.84127 51.454 5.84127C52.673 5.94286 53.5365 6.85714 53.5365 7.92381ZM45.054 12.0889V12.5968C45.054 12.5968 44.0889 11.327 42.0064 11.327C38.5524 11.327 35.8603 13.9683 35.8603 17.5746C35.8603 21.181 38.5016 23.8222 42.0064 23.8222C44.1397 23.8222 45.054 22.5016 45.054 22.5016V23.0603C45.054 23.3143 45.2572 23.5175 45.5111 23.5175H48.0508V11.6317H45.5111C45.2572 11.6317 45.054 11.8857 45.054 12.0889ZM42.5143 21.0286C43.6318 21.0286 44.5968 20.419 45.054 19.7079V15.5429C44.6476 14.8317 43.6318 14.2222 42.5143 14.2222C40.5333 14.2222 38.9587 15.4921 38.9587 17.6254C38.9587 19.7587 40.4826 21.0286 42.5143 21.0286ZM49.981 11.6317H53.0286V23.5175H49.981V11.6317ZM92.2921 12.5968C92.2921 12.5968 93.2572 11.327 95.3397 11.327C98.7937 11.327 101.486 13.9683 101.435 17.6254C101.435 21.2317 98.7429 23.873 95.2889 23.873C93.2064 23.873 92.2413 22.5524 92.2413 22.5524V23.1111C92.2413 23.3651 92.0381 23.5683 91.7841 23.5683H89.2445V5.94286H92.2921V12.5968ZM94.8318 20.9778C93.6635 20.9778 92.7492 20.3683 92.2921 19.6571V15.3905C92.7492 14.781 93.7651 14.0698 94.8318 14.0698C96.8635 14.0698 98.3873 15.3397 98.3873 17.473C98.3873 19.6063 96.8635 20.9778 94.8318 20.9778ZM87.6699 23.619V16.5079C87.6699 14.4762 87.2635 13.3587 86.146 12.4444C85.2826 11.6825 84.1651 11.327 82.8445 11.327C81.6762 11.327 80.4572 11.6825 79.5937 12.5968V12.0889C79.5937 11.8349 79.3905 11.6317 79.1365 11.6317H76.7492V23.5683H79.7968V15.2889C80.4064 14.5778 81.3714 14.1206 82.2857 14.1206C84.0127 14.1206 84.6222 14.8825 84.6222 16.8635V23.619H87.6699ZM69.3841 11.327C67.3016 11.327 66.3365 12.5968 66.3365 12.5968V5.94286H63.2889V23.5683H65.8286C66.0826 23.5683 66.2857 23.3651 66.2857 23.1111V22.5524C66.2857 22.5524 67.2508 23.873 69.3333 23.873C72.7873 23.873 75.4794 21.2317 75.4794 17.6254C75.5302 13.9683 72.8381 11.327 69.3841 11.327ZM66.3365 19.6571C66.7937 20.3683 67.708 20.9778 68.8762 20.9778C70.908 20.9778 72.4318 19.6063 72.4318 17.473C72.4318 15.3397 70.908 14.0698 68.8762 14.0698C67.8095 14.0698 66.7937 14.781 66.3365 15.3905V19.6571ZM60.6476 11.327C61.5619 11.327 62.0191 11.4794 62.0191 11.4794V14.273C62.0191 14.273 59.4794 13.4095 57.9048 15.2381V23.5683H54.8572V11.6317H57.3968C57.6508 11.6317 57.854 11.8349 57.854 12.0889V12.5968C58.4635 11.9365 59.7333 11.327 60.6476 11.327ZM14.8318 24.127C13.1048 21.9937 12.0381 19.9619 11.6318 18.2349C11.4794 17.5238 11.4286 16.8635 11.5302 16.3048C11.581 15.7968 11.7841 15.3397 12.0381 14.9841C12.6476 14.1206 13.6635 13.6127 14.8318 13.6127C16 13.6127 17.0667 14.1206 17.6254 14.9841C17.8794 15.3397 18.0826 15.7968 18.1333 16.3048C18.2349 16.8635 18.1841 17.5238 18.0318 18.2349C17.6254 19.9111 16.508 21.9429 14.8318 24.127ZM24.5333 29.3079C26.108 28.6476 27.2254 27.2254 27.4286 25.6C27.581 24.7873 27.4794 23.9746 27.1238 23.1111C27.0222 22.8063 26.8699 22.4508 26.7175 22.0952C26.5905 21.8413 26.4762 21.5746 26.3619 21.3079C26.2476 21.0413 26.1333 20.7746 26.0064 20.5206V20.4698C23.8222 15.7968 21.4857 10.9714 19.0984 6.24762L18.9968 6.04445C18.7429 5.53651 18.4889 5.02857 18.2349 4.57143C17.981 4.06349 17.727 3.60635 17.3714 3.2C16.7111 2.4381 15.7968 2.03175 14.8318 2.03175C13.8667 2.03175 12.9524 2.4381 12.2921 3.2C11.9873 3.60635 11.6826 4.06349 11.4286 4.57143L11.4286 4.57149C11.1746 5.0794 10.9206 5.58732 10.6667 6.04445L10.5651 6.24762C8.127 10.9206 5.79049 15.746 3.60636 20.4698L3.55557 20.5206C3.3016 21.0286 3.04763 21.5873 2.84446 22.0952C2.77457 22.2816 2.70469 22.4466 2.6397 22.6C2.56299 22.7811 2.49311 22.9461 2.43811 23.1111C2.08255 24.0254 2.03176 24.7873 2.13335 25.6C2.38732 27.2254 3.45398 28.6984 5.02859 29.3079C5.7397 29.5619 6.5524 29.7143 7.41589 29.6127C8.17779 29.5111 8.99049 29.2571 9.80319 28.8C10.9206 28.1905 12.0889 27.2254 13.4095 25.7524C11.3778 23.2127 10.0572 20.8254 9.60001 18.7429C9.34605 17.7778 9.34605 16.8635 9.44763 16.0508C9.60001 15.2889 9.85398 14.527 10.3111 13.9175C11.2762 12.546 12.9524 11.6825 14.781 11.6825C16.6095 11.6825 18.2857 12.4952 19.2508 13.9175C19.708 14.527 20.0127 15.2381 20.1143 16.0508C20.2159 16.8635 20.1651 17.7778 19.9619 18.7429C19.5048 20.8254 18.2349 23.2127 16.1524 25.7524C17.473 27.1746 18.6413 28.1905 19.7587 28.8C20.5714 29.2571 21.3333 29.5111 22.146 29.6127C22.9587 29.7143 23.7714 29.6127 24.5333 29.3079Z" fill="#FF5A5F"/>
</svg>
