<svg width="106" height="32" viewBox="0 0 106 32" fill="none" xmlns="http://www.w3.org/2000/svg">
<path d="M64.3672 23.3967C57.5475 26.282 50.0984 27.6984 43.3312 27.6984C33.3115 27.6984 23.6066 24.9705 15.7377 20.4066C15.0557 19.9869 14.5312 20.7213 15.1082 21.2459C22.4 27.8033 32 31.7377 42.6492 31.7377C50.2557 31.7377 59.1213 29.3246 65.2066 24.8656C66.2557 24.0263 65.4164 22.9246 64.3672 23.3967Z" fill="#FF9900"/>
<path d="M60.5377 20.8262C60.0131 21.1934 60.0656 21.718 60.6951 21.6656C62.6361 21.4557 67.0426 20.9311 67.8295 21.9279C68.6164 22.9246 66.9377 27.0688 66.2033 28.9049C65.9934 29.482 66.4656 29.6918 66.9377 29.2721C70.1902 26.5442 71.082 20.7738 70.4 19.9869C69.7705 19.0951 64 18.3606 60.5377 20.8262Z" fill="#FF9900"/>
<path d="M72.4984 13.9016C70.6098 12.8524 68.459 12.5377 66.4131 12.5901L71.9738 4.6688C72.4984 3.93437 72.7607 3.5147 72.7607 3.14749V1.10159C72.7607 0.734372 72.4984 0.524536 72.1311 0.524536H61.4295C61.1148 0.524536 60.8525 0.786831 60.8525 1.10159V3.46224C60.8525 3.82945 61.1148 4.03929 61.482 4.03929H67.0426L60.6426 13.2196C60.2754 13.7967 60.2754 14.4786 60.2754 14.8458V17.259C60.2754 17.6262 60.6426 17.9934 61.0098 17.7836C64.6295 15.8426 68.9836 16.0524 72.2885 17.7836C72.7082 17.9934 73.0754 17.5737 73.0754 17.259V14.6885C73.0229 14.4786 72.918 14.1114 72.4984 13.9016Z" fill="#221F1F"/>
<path d="M18.623 18.4131H21.8754C22.2426 18.4131 22.5049 18.1508 22.5049 17.8361V8.97049C22.5049 7.02951 22.4 4.3541 24.7607 4.3541C27.0689 4.3541 26.7541 7.08197 26.7541 8.97049V17.8361C26.7541 18.1508 27.0164 18.4131 27.3312 18.4131H30.5836C30.9508 18.4131 31.2131 18.1508 31.2131 17.8361V8.97049C31.2131 8.02623 31.1607 6.60984 31.5279 5.77049C31.8426 4.93115 32.682 4.40656 33.4689 4.40656C34.4131 4.40656 35.1475 4.72131 35.3574 5.82295C35.5148 6.50492 35.4623 8.23607 35.4623 8.97049V17.8361C35.4623 18.1508 35.7246 18.4131 36.0393 18.4131H39.2918C39.659 18.4131 39.9213 18.1508 39.9213 17.8361V7.29181C39.9213 5.5082 40.1312 3.4623 39.082 2.0459C38.1902 0.786888 36.6689 0.209839 35.3049 0.209839C33.3639 0.209839 31.5803 1.20656 30.7934 3.30492C29.9016 1.20656 28.5902 0.209839 26.5967 0.209839C24.6033 0.209839 23.1344 1.20656 22.2951 3.30492H22.2426V1.10164C22.2426 0.786888 21.9803 0.577052 21.6656 0.524593H18.623C18.2557 0.524593 17.9934 0.786888 17.9934 1.10164V17.8361C18.0459 18.1508 18.3082 18.3607 18.623 18.4131Z" fill="#221F1F"/>
<path fill-rule="evenodd" clip-rule="evenodd" d="M74.6492 9.44263C74.6492 4.24918 77.2197 0.209839 81.941 0.209839C86.7672 0.209839 89.3377 4.3541 89.3902 9.6C89.3902 14.6885 86.5049 18.7279 81.941 18.7279C77.2197 18.7279 74.6492 14.5836 74.6492 9.44263ZM79.4229 9.03848C79.4219 11.1297 79.4199 15.318 81.941 15.318C84.459 15.318 84.5639 11.8033 84.6164 9.65246C84.6164 8.28853 84.5639 6.55738 84.1443 5.2459C83.777 4.09181 83.0426 3.61967 81.9934 3.61967C79.5803 3.61967 79.4229 6.87213 79.4229 8.91804C79.4229 8.95735 79.4229 8.99751 79.4229 9.03848Z" fill="#221F1F"/>
<path d="M100.511 0.209839C98.2557 0.209839 96.9967 1.31148 96.1049 3.56722H96V1.04918C95.9475 0.786888 95.6853 0.577052 95.423 0.577052H92.4328C92.118 0.577052 91.8557 0.839347 91.8033 1.10164V17.7836C91.8033 18.0984 92.0656 18.3607 92.3803 18.3607H95.6328C96 18.3607 96.2623 18.0984 96.2623 17.7836V8.81312C96.2623 7.71148 96.3148 6.6623 96.7869 5.66558C97.1541 4.87869 97.8885 4.3541 98.6754 4.3541C100.931 4.3541 100.721 7.02951 100.721 8.86558V17.941C100.774 18.2033 100.984 18.4656 101.298 18.4656H104.551C104.866 18.4656 105.128 18.2557 105.18 17.941V7.44918C105.18 5.82295 105.18 3.56722 104.341 2.25574C103.344 0.734429 101.928 0.209839 100.511 0.209839Z" fill="#221F1F"/>
<path fill-rule="evenodd" clip-rule="evenodd" d="M51.4966 7.21938C51.7735 7.19086 52.043 7.1631 52.3016 7.13437L52.4065 6.76715C52.4065 6.69624 52.407 6.62447 52.4074 6.55208C52.4117 5.82123 52.4165 5.02701 51.9869 4.4065C51.5672 3.82945 50.8328 3.56715 50.1508 3.56715C48.8918 3.56715 47.7902 4.19666 47.5279 5.50814C47.4754 5.77043 47.2656 6.08519 46.9508 6.08519L43.8033 5.77043C43.541 5.71797 43.2787 5.50814 43.3311 5.08846C44.0656 1.25896 47.5279 0.104858 50.6229 0.104858C52.1967 0.104858 54.2426 0.524531 55.5016 1.73109C56.9431 3.12449 56.9323 4.86995 56.9202 6.80625C56.9191 6.984 56.918 7.16336 56.918 7.3442V12.4327C56.918 13.7441 57.3858 14.3928 57.8844 15.0845C57.9643 15.1952 58.0449 15.307 58.1246 15.4229C58.3344 15.6852 58.3869 16.0524 58.1246 16.2622C57.4951 16.7868 56.2885 17.836 55.659 18.4131C55.4492 18.5704 55.1344 18.5704 54.8721 18.4655C53.9114 17.6878 53.6289 17.2691 53.1896 16.618C53.1252 16.5225 53.0574 16.422 52.9836 16.3147C51.2 18.1508 49.941 18.6754 47.6328 18.6754C44.9049 18.6754 42.7541 16.9442 42.7541 13.5868C42.7541 10.9639 44.1705 9.18027 46.2164 8.28846C47.7105 7.60934 49.7516 7.39911 51.4966 7.21938ZM49.4688 15.3704C50.3606 15.3704 51.2 14.7934 51.7246 13.9016C52.3086 12.8308 52.3057 11.8504 52.3022 10.7088C52.3019 10.62 52.3016 10.5302 52.3016 10.4393V9.75732C49.941 9.75732 47.4754 10.2294 47.4754 13.0098C47.4754 14.4262 48.2098 15.3704 49.4688 15.3704Z" fill="#221F1F"/>
<path fill-rule="evenodd" clip-rule="evenodd" d="M15.2353 14.9796C15.3151 15.0903 15.3958 15.2022 15.4754 15.318C15.6852 15.6328 15.7377 16 15.4754 16.2623C14.8459 16.7869 13.6393 17.8361 13.0098 18.4131C12.8 18.5705 12.4852 18.5705 12.223 18.4656C11.2622 17.6878 10.9797 17.2692 10.5404 16.6181C10.476 16.5226 10.4082 16.4221 10.3344 16.3148C8.55082 18.1508 7.2918 18.6754 4.98361 18.6754C2.25574 18.6754 0.104919 16.9443 0.104919 13.5869C0.104919 10.9115 1.57377 9.12787 3.61967 8.23607C5.11374 7.55694 7.15486 7.34671 8.89993 7.16698C9.17684 7.13846 9.44629 7.1107 9.70492 7.08197V6.66229C9.70492 6.54254 9.70735 6.42036 9.70981 6.29686C9.72349 5.60883 9.73799 4.87982 9.33771 4.30164C8.91803 3.72459 8.18361 3.4623 7.50164 3.4623C6.24262 3.4623 5.14099 4.0918 4.87869 5.40328C4.82623 5.66557 4.61639 5.98033 4.30164 5.98033L1.1541 5.66557C0.891805 5.61311 0.62951 5.40328 0.681969 4.98361C1.41639 1.1541 4.87869 0 7.97377 0C9.54754 0 11.5934 0.419672 12.8525 1.62623C14.2939 3.01963 14.2831 4.76509 14.2711 6.70139C14.27 6.87914 14.2689 7.0585 14.2689 7.23934V12.3279C14.2689 13.6392 14.7366 14.2879 15.2353 14.9796ZM6.81967 15.3705C7.76394 15.3705 8.55082 14.7934 9.07541 13.9016C9.74939 12.7611 9.70605 11.723 9.6543 10.4835L9.65246 10.4393V9.75738C7.2918 9.75738 4.82623 10.2295 4.82623 13.0098C4.82623 14.4262 5.56066 15.3705 6.81967 15.3705Z" fill="#221F1F"/>
</svg>
