<svg width="48" height="48" viewBox="0 0 48 48" fill="none" xmlns="http://www.w3.org/2000/svg">
<rect width="48" height="48" fill="#F5F5F5"/>
<g clip-path="url(#clip0_1_931)">
<rect width="1440" height="7679" transform="translate(-1028 -2301)" fill="white"/>
<rect x="-1028" y="-331" width="1440" height="1494" fill="url(#paint0_linear_1_931)"/>
<g clip-path="url(#clip1_1_931)">
<g clip-path="url(#clip2_1_931)">
<g opacity="0.06">
<rect width="48" height="48" rx="8" fill="#1565D8"/>
</g>
<path d="M14.719 18.8328H17.8441C18.3677 18.8328 18.7921 19.242 18.7921 19.7467C18.7921 20.2514 18.3677 20.6606 17.8441 20.6606H12.788C12.2644 20.6606 11.84 20.2514 11.84 19.7467V14.8727C11.84 14.3679 12.2644 13.9588 12.788 13.9588C13.3116 13.9588 13.736 14.3679 13.736 14.8727V16.904C16.8178 12.6569 22.5448 10.7304 27.845 12.4897C32.8315 14.1448 36.1619 18.6679 36.16 23.7264C36.1598 24.2311 35.7352 24.6401 35.2116 24.64C34.6881 24.6398 34.2638 24.2305 34.264 23.7258C34.2656 19.446 31.4471 15.6184 27.2277 14.2179C22.3917 12.6126 17.1351 14.6342 14.719 18.8328Z" fill="#B4CCEF"/>
<path fill-rule="evenodd" clip-rule="evenodd" d="M33.2493 29.1531H30.1648C29.642 29.1531 29.2182 28.7431 29.2182 28.2374C29.2182 27.7317 29.642 27.3217 30.1648 27.3217H35.2134C35.7362 27.3217 36.16 27.7317 36.16 28.2374V33.121C36.16 33.6267 35.7362 34.0367 35.2134 34.0367C34.6906 34.0367 34.2668 33.6267 34.2668 33.121V31.0358C31.1966 35.3294 25.4517 37.2775 20.1426 35.5091C15.1733 33.854 11.8501 29.3361 11.84 24.2774C11.839 23.7717 12.262 23.361 12.7848 23.36C13.3076 23.359 13.7322 23.7682 13.7332 24.2739C13.7418 28.5538 16.554 32.377 20.7589 33.7775C25.584 35.3847 30.8353 33.3636 33.2493 29.1531Z" fill="#1565D8"/>
</g>
</g>
</g>
<defs>
<linearGradient id="paint0_linear_1_931" x1="-1028" y1="-331" x2="-1028" y2="1163" gradientUnits="userSpaceOnUse">
<stop stop-color="#F8FBFF"/>
<stop offset="1" stop-color="#FAFBFB" stop-opacity="0.01"/>
</linearGradient>
<clipPath id="clip0_1_931">
<rect width="1440" height="7679" fill="white" transform="translate(-1028 -2301)"/>
</clipPath>
<clipPath id="clip1_1_931">
<rect width="555" height="563" fill="white" transform="translate(-293 -283)"/>
</clipPath>
<clipPath id="clip2_1_931">
<rect width="262" height="154" fill="white" transform="translate(-1)"/>
</clipPath>
</defs>
</svg>
