<svg width="24" height="24" viewBox="0 0 24 24" fill="none" xmlns="http://www.w3.org/2000/svg">
<rect width="24" height="24" fill="#F5F5F5"/>
<g clip-path="url(#clip0_1_931)">
<rect width="1440" height="7679" transform="translate(-182 -3970)" fill="white"/>
<g clip-path="url(#clip1_1_931)">
<g clip-path="url(#clip2_1_931)">
<path opacity="0.15" fill-rule="evenodd" clip-rule="evenodd" d="M12 24C18.6274 24 24 18.6274 24 12C24 5.37258 18.6274 0 12 0C5.37258 0 0 5.37258 0 12C0 18.6274 5.37258 24 12 24Z" fill="#36B37E"/>
<path d="M10.3984 15.8242L7.13672 12.582C7.04557 12.4909 7 12.3737 7 12.2305C7 12.0872 7.04557 11.9701 7.13672 11.8789L7.85937 11.1758C7.95052 11.0716 8.06445 11.0195 8.20117 11.0195C8.33789 11.0195 8.45833 11.0716 8.5625 11.1758L10.75 13.3633L15.4375 8.6758C15.5416 8.57163 15.6621 8.51955 15.7988 8.51955C15.9355 8.51955 16.0495 8.57163 16.1406 8.6758L16.8633 9.37892C16.9544 9.47007 17 9.58725 17 9.73048C17 9.87371 16.9544 9.9909 16.8633 10.082L11.1016 15.8242C11.0104 15.9284 10.8932 15.9805 10.75 15.9805C10.6068 15.9805 10.4896 15.9284 10.3984 15.8242Z" fill="#36B37E"/>
</g>
</g>
</g>
<defs>
<clipPath id="clip0_1_931">
<rect width="1440" height="7679" fill="white" transform="translate(-182 -3970)"/>
</clipPath>
<clipPath id="clip1_1_931">
<rect width="555" height="570" fill="white" transform="translate(0 -362)"/>
</clipPath>
<clipPath id="clip2_1_931">
<rect width="179" height="24" fill="white"/>
</clipPath>
</defs>
</svg>
