<svg width="64" height="64" viewBox="0 0 64 64" fill="none" xmlns="http://www.w3.org/2000/svg">
<rect width="64" height="64" fill="#F5F5F5"/>
<g clip-path="url(#clip0_1_931)">
<rect width="1440" height="7679" transform="translate(-1127 -1418)" fill="white"/>
<g clip-path="url(#clip1_1_931)">
<g opacity="0.06">
<rect width="64" height="64" rx="16" fill="#1565D8"/>
</g>
<path opacity="0.3" fill-rule="evenodd" clip-rule="evenodd" d="M31.2456 43.7548L32.3795 44.8887C32.841 45.3502 32.841 46.0984 32.3795 46.5599C31.918 47.0214 31.1698 47.0214 30.7083 46.5599L27.5571 43.4087C27.0956 42.9472 27.0956 42.199 27.5571 41.7375L30.7083 38.5863C31.1698 38.1248 31.918 38.1248 32.3795 38.5863C32.841 39.0478 32.841 39.796 32.3795 40.2575L31.2456 41.3914H39.028V43.7548H31.2456ZM43.7549 31.8422L44.8888 30.7082C45.3503 30.2468 46.0985 30.2468 46.56 30.7082C47.0215 31.1697 47.0215 31.9179 46.56 32.3794L43.4088 35.5306C43.178 35.7614 42.8756 35.8768 42.5732 35.8768C42.2707 35.8768 41.9683 35.7614 41.7376 35.5306L38.5864 32.3794C38.1249 31.9179 38.1249 31.1697 38.5864 30.7082C39.0478 30.2468 39.7961 30.2468 40.2575 30.7082L41.3915 31.8422V24.0597H43.7549V31.8422ZM31.8422 21.6963H24.0598V19.3329H31.8422L30.7083 18.1989C30.2468 17.7375 30.2468 16.9892 30.7083 16.5278C31.1698 16.0663 31.918 16.0663 32.3795 16.5278L35.5307 19.679C35.9922 20.1405 35.9922 20.8887 35.5307 21.3502L32.3795 24.5014C31.918 24.9629 31.1698 24.9629 30.7083 24.5014C30.2468 24.0399 30.2468 23.2917 30.7083 22.8302L31.8422 21.6963ZM19.3329 31.2455L18.199 32.3794C17.7375 32.8409 16.9893 32.8409 16.5278 32.3794C16.0663 31.9179 16.0663 31.1697 16.5278 30.7082L19.679 27.557C20.1405 27.0955 20.8887 27.0955 21.3502 27.557L24.5014 30.7082C24.9629 31.1697 24.9629 31.9179 24.5014 32.3794C24.04 32.8409 23.2917 32.8409 22.8303 32.3794L21.6963 31.2455V39.028H19.3329V31.2455Z" fill="#1565D8"/>
<path fill-rule="evenodd" clip-rule="evenodd" d="M26.0293 23.6659V17.3634C26.0293 16.0581 24.9711 15 23.6659 15H17.3634C16.0581 15 15 16.0581 15 17.3634V23.6659C15 24.9711 16.0581 26.0293 17.3634 26.0293H23.6659C24.9711 26.0293 26.0293 24.9711 26.0293 23.6659ZM23.6659 37.0585H17.3634C16.0581 37.0585 15 38.1167 15 39.422V45.7244C15 47.0297 16.0581 48.0878 17.3634 48.0878H23.6659C24.9711 48.0878 26.0293 47.0297 26.0293 45.7244V39.422C26.0293 38.1167 24.9711 37.0585 23.6659 37.0585ZM45.7244 26.0293H39.422C38.1167 26.0293 37.0585 24.9711 37.0585 23.6659V17.3634C37.0585 16.0581 38.1167 15 39.422 15H45.7244C47.0297 15 48.0878 16.0581 48.0878 17.3634V23.6659C48.0878 24.9711 47.0297 26.0293 45.7244 26.0293ZM37.0585 39.422V45.7244C37.0585 47.0297 38.1167 48.0878 39.422 48.0878H45.7244C47.0297 48.0878 48.0878 47.0297 48.0878 45.7244V39.422C48.0878 38.1167 47.0297 37.0585 45.7244 37.0585H39.422C38.1167 37.0585 37.0585 38.1167 37.0585 39.422Z" fill="#1565D8"/>
</g>
</g>
<defs>
<clipPath id="clip0_1_931">
<rect width="1440" height="7679" fill="white" transform="translate(-1127 -1418)"/>
</clipPath>
<clipPath id="clip1_1_931">
<rect width="263" height="232" fill="white" transform="translate(-100)"/>
</clipPath>
</defs>
</svg>
