<svg width="64" height="64" viewBox="0 0 64 64" fill="none" xmlns="http://www.w3.org/2000/svg">
<rect width="64" height="64" fill="#F5F5F5"/>
<g clip-path="url(#clip0_1_931)">
<rect width="1440" height="7679" transform="translate(-835 -1418)" fill="white"/>
<g clip-path="url(#clip1_1_931)">
<g opacity="0.06">
<rect width="64" height="64" rx="16" fill="#1565D8"/>
</g>
<path fill-rule="evenodd" clip-rule="evenodd" d="M37.4 24.6353V27.8637L42.8828 22.3809L43 22.0981V18.8696L37.5172 24.3525L37.4 24.6353ZM21.4 45.4637V42.2353L21.5172 41.9525L27 36.4696V39.6981L26.8828 39.9809L21.4 45.4637ZM29.4 39.6981L29.5172 39.9809L35 45.4637V42.2353L34.8828 41.9525L29.4 36.4696V39.6981ZM37.4 42.2353V45.4637L42.8828 39.9809L43 39.6981V36.4696L37.5172 41.9525L37.4 42.2353ZM29.5172 22.3809L29.4 22.0981V18.8696L34.8828 24.3525L35 24.6353V27.8637L29.5172 22.3809ZM21.4 24.6353V27.8637L26.8828 22.3809L27 22.0981V18.8696L21.5172 24.3525L21.4 24.6353Z" fill="#B4CCEF"/>
<path fill-rule="evenodd" clip-rule="evenodd" d="M28.2 22.5667C26.4327 22.5667 25 21.1341 25 19.3667C25 17.5994 26.4327 16.1667 28.2 16.1667C29.9673 16.1667 31.4 17.5994 31.4 19.3667C31.4 21.1341 29.9673 22.5667 28.2 22.5667ZM25 36.9667C25 38.7341 26.4327 40.1667 28.2 40.1667C29.9673 40.1667 31.4 38.7341 31.4 36.9667C31.4 35.1994 29.9673 33.7667 28.2 33.7667C26.4327 33.7667 25 35.1994 25 36.9667ZM33 44.9667C33 46.7341 34.4327 48.1667 36.2 48.1667C37.9673 48.1667 39.4 46.7341 39.4 44.9667C39.4 43.1994 37.9673 41.7667 36.2 41.7667C34.4327 41.7667 33 43.1994 33 44.9667ZM44.2 40.1667C42.4327 40.1667 41 38.7341 41 36.9667C41 35.1994 42.4327 33.7667 44.2 33.7667C45.9673 33.7667 47.4 35.1994 47.4 36.9667C47.4 38.7341 45.9673 40.1667 44.2 40.1667ZM17 44.9667C17 46.7341 18.4327 48.1667 20.2 48.1667C21.9673 48.1667 23.4 46.7341 23.4 44.9667C23.4 43.1994 21.9673 41.7667 20.2 41.7667C18.4327 41.7667 17 43.1994 17 44.9667ZM33 27.3667C33 29.1341 34.4327 30.5667 36.2 30.5667C37.9673 30.5667 39.4 29.1341 39.4 27.3667C39.4 25.5994 37.9673 24.1667 36.2 24.1667C34.4327 24.1667 33 25.5994 33 27.3667ZM44.2 22.5667C42.4327 22.5667 41 21.1341 41 19.3667C41 17.5994 42.4327 16.1667 44.2 16.1667C45.9673 16.1667 47.4 17.5994 47.4 19.3667C47.4 21.1341 45.9673 22.5667 44.2 22.5667ZM17 27.3667C17 29.1341 18.4327 30.5667 20.2 30.5667C21.9673 30.5667 23.4 29.1341 23.4 27.3667C23.4 25.5994 21.9673 24.1667 20.2 24.1667C18.4327 24.1667 17 25.5994 17 27.3667Z" fill="#1565D8"/>
</g>
</g>
<defs>
<clipPath id="clip0_1_931">
<rect width="1440" height="7679" fill="white" transform="translate(-835 -1418)"/>
</clipPath>
<clipPath id="clip1_1_931">
<rect width="263" height="232" fill="white" transform="translate(-100)"/>
</clipPath>
</defs>
</svg>
