<svg width="49" height="49" viewBox="0 0 49 49" fill="none" xmlns="http://www.w3.org/2000/svg">
<rect width="49" height="49" fill="#F5F5F5"/>
<g clip-path="url(#clip0_1_931)">
<rect width="1440" height="7679" transform="translate(-150 -3187)" fill="white"/>
<rect x="-150" y="-1217" width="1440" height="1494" fill="url(#paint0_linear_1_931)"/>
<g clip-path="url(#clip1_1_931)">
<g opacity="0.2">
<rect width="48" height="48" rx="16" stroke="#1565D8"/>
</g>
<path fill-rule="evenodd" clip-rule="evenodd" d="M13.92 12.24H27.36C28.2878 12.24 29.04 12.9922 29.04 13.92V27.36C29.04 28.2878 28.2878 29.04 27.36 29.04H13.92C12.9922 29.04 12.24 28.2878 12.24 27.36V13.92C12.24 12.9922 12.9922 12.24 13.92 12.24ZM33.52 18.96H34.08C35.0078 18.96 35.76 19.7122 35.76 20.64V34.08C35.76 35.0078 35.0078 35.76 34.08 35.76H20.64C19.7122 35.76 18.96 35.0078 18.96 34.08V33.52H30.72C32.2664 33.52 33.52 32.2664 33.52 30.72V18.96Z" fill="#1565D8"/>
<path opacity="0.3" fill-rule="evenodd" clip-rule="evenodd" d="M30.16 15.6H30.72C31.6478 15.6 32.4 16.3521 32.4 17.28V30.72C32.4 31.6478 31.6478 32.4 30.72 32.4H17.28C16.3522 32.4 15.6 31.6478 15.6 30.72V30.16H27.36C28.9064 30.16 30.16 28.9064 30.16 27.36V15.6Z" fill="#1565D8"/>
</g>
</g>
<defs>
<linearGradient id="paint0_linear_1_931" x1="-150" y1="-1217" x2="-150" y2="277" gradientUnits="userSpaceOnUse">
<stop stop-color="#F8FBFF"/>
<stop offset="1" stop-color="#FAFBFB" stop-opacity="0.01"/>
</linearGradient>
<clipPath id="clip0_1_931">
<rect width="1440" height="7679" fill="white" transform="translate(-150 -3187)"/>
</clipPath>
<clipPath id="clip1_1_931">
<rect width="360" height="133" fill="white"/>
</clipPath>
</defs>
</svg>
