<svg width="49" height="49" viewBox="0 0 49 49" fill="none" xmlns="http://www.w3.org/2000/svg">
<rect width="49" height="49" fill="#F5F5F5"/>
<g clip-path="url(#clip0_1_931)">
<rect width="1440" height="7679" transform="translate(-540 -3187)" fill="white"/>
<rect x="-540" y="-1217" width="1440" height="1494" fill="url(#paint0_linear_1_931)"/>
<g clip-path="url(#clip1_1_931)">
<g opacity="0.2">
<rect width="48" height="48" rx="16" stroke="#1565D8"/>
</g>
<path fill-rule="evenodd" clip-rule="evenodd" d="M18.2815 31.4854C17.9043 30.4635 17.6045 29.3323 17.3955 28.1208C16.4031 27.3064 15.5258 26.4483 14.7822 25.574C13.8245 27.2488 13.5532 28.8066 14.1702 29.9094C14.7988 31.0328 16.3107 31.5546 18.2815 31.4854ZM19.0601 33.2363C16.0588 33.5014 13.6309 32.7029 12.5487 30.7688C11.5094 28.9113 11.9943 26.4569 13.5997 24C11.9943 21.5431 11.5094 19.0887 12.5487 17.2312C13.6309 15.2971 16.0588 14.4986 19.0601 14.7637C20.301 12.4345 22.0306 11 24 11C25.9694 11 27.699 12.4345 28.9399 14.7637C31.9412 14.4986 34.3691 15.2971 35.4513 17.2312C36.4906 19.0887 36.0057 21.5431 34.4003 24C36.0057 26.4569 36.4906 28.9113 35.4513 30.7688C34.3691 32.7029 31.9412 33.5014 28.9399 33.2363C27.699 35.5655 25.9694 37 24 37C22.0306 37 20.301 35.5655 19.0601 33.2363ZM33.2178 22.426C34.1755 20.7512 34.4468 19.1934 33.8298 18.0906C33.2012 16.9672 31.6893 16.4454 29.7185 16.5146C30.0957 17.5365 30.3955 18.6677 30.6045 19.8792C31.5969 20.6935 32.4742 21.5517 33.2178 22.426ZM27.0267 15.0607C26.1615 13.6518 25.1042 12.814 24 12.814C22.8958 12.814 21.8385 13.6518 20.9733 15.0607C21.9509 15.2738 22.9671 15.5846 24 15.991C25.0329 15.5846 26.0491 15.2738 27.0267 15.0607ZM26.381 17.0859C26.8852 16.9404 27.3782 16.8223 27.8555 16.7317C28.0463 17.2062 28.2197 17.715 28.373 18.2528C28.1054 18.0796 27.8322 17.9098 27.5536 17.7439C27.1635 17.5115 26.7722 17.2921 26.381 17.0859ZM21.619 17.0859C21.1148 16.9404 20.6218 16.8223 20.1445 16.7317C19.9537 17.2062 19.7803 17.715 19.627 18.2528C19.8946 18.0796 20.1678 17.9098 20.4464 17.7439C20.8365 17.5115 21.2278 17.2921 21.619 17.0859ZM19.0811 20.8631C19.7998 20.3054 20.579 19.7718 21.4103 19.2765C22.2737 18.7622 23.143 18.319 24 17.9473C24.857 18.319 25.7263 18.7622 26.5897 19.2765C27.421 19.7718 28.2002 20.3054 28.9189 20.8631C29.059 21.8596 29.135 22.9125 29.135 24C29.135 25.0875 29.059 26.1404 28.9189 27.1369C28.2002 27.6946 27.421 28.2282 26.5897 28.7235C25.7263 29.2378 24.857 29.681 24 30.0527C23.143 29.681 22.2737 29.2378 21.4103 28.7235C20.579 28.2282 19.7998 27.6946 19.0811 27.1369C18.941 26.1404 18.865 25.0875 18.865 24C18.865 22.9125 18.941 21.8596 19.0811 20.8631ZM17.3955 19.8792C17.6045 18.6677 17.9043 17.5365 18.2815 16.5146C16.3107 16.4454 14.7988 16.9672 14.1702 18.0906C13.5532 19.1934 13.8245 20.7512 14.7822 22.426C15.5258 21.5517 16.4031 20.6935 17.3955 19.8792ZM15.8589 24C16.2253 23.5387 16.6369 23.0765 17.0896 22.62C17.0651 23.0733 17.0526 23.5337 17.0526 24C17.0526 24.4663 17.0651 24.9267 17.0896 25.38C16.6369 24.9235 16.2253 24.4613 15.8589 24ZM24 32.009C25.0329 32.4154 26.0491 32.7262 27.0267 32.9393C26.1615 34.3482 25.1042 35.186 24 35.186C22.8958 35.186 21.8385 34.3482 20.9733 32.9393C21.9509 32.7262 22.9671 32.4154 24 32.009ZM21.619 30.9141C21.1148 31.0596 20.6218 31.1777 20.1445 31.2683C19.9537 30.7938 19.7803 30.285 19.627 29.7472C19.8946 29.9204 20.1678 30.0902 20.4464 30.2561C20.8365 30.4885 21.2278 30.7079 21.619 30.9141ZM26.381 30.9141C26.7722 30.7079 27.1635 30.4885 27.5536 30.2561C27.8322 30.0902 28.1054 29.9204 28.373 29.7472C28.2197 30.285 28.0463 30.7938 27.8555 31.2683C27.3782 31.1777 26.8852 31.0596 26.381 30.9141ZM30.6045 28.1208C30.3955 29.3323 30.0957 30.4635 29.7185 31.4854C31.6893 31.5546 33.2012 31.0328 33.8298 29.9094C34.4468 28.8066 34.1755 27.2488 33.2178 25.574C32.4742 26.4483 31.5969 27.3064 30.6045 28.1208ZM30.9104 25.38C31.3631 24.9235 31.7747 24.4613 32.1411 24C31.7747 23.5387 31.3631 23.0765 30.9104 22.62C30.9349 23.0733 30.9474 23.5337 30.9474 24C30.9474 24.4663 30.9349 24.9267 30.9104 25.38Z" fill="#1565D8"/>
<path opacity="0.3" fill-rule="evenodd" clip-rule="evenodd" d="M24.0545 27.0667C22.3676 27.0667 21 25.7086 21 24.0333C21 22.3581 22.3676 21 24.0545 21C25.7415 21 27.1091 22.3581 27.1091 24.0333C27.1091 25.7086 25.7415 27.0667 24.0545 27.0667Z" fill="#1565D8"/>
</g>
</g>
<defs>
<linearGradient id="paint0_linear_1_931" x1="-540" y1="-1217" x2="-540" y2="277" gradientUnits="userSpaceOnUse">
<stop stop-color="#F8FBFF"/>
<stop offset="1" stop-color="#FAFBFB" stop-opacity="0.01"/>
</linearGradient>
<clipPath id="clip0_1_931">
<rect width="1440" height="7679" fill="white" transform="translate(-540 -3187)"/>
</clipPath>
<clipPath id="clip1_1_931">
<rect width="360" height="133" fill="white"/>
</clipPath>
</defs>
</svg>
