<svg width="49" height="49" viewBox="0 0 49 49" fill="none" xmlns="http://www.w3.org/2000/svg">
<rect width="49" height="49" fill="#F5F5F5"/>
<g clip-path="url(#clip0_1_931)">
<rect width="1440" height="7679" transform="translate(-930 -2990)" fill="white"/>
<rect x="-930" y="-1020" width="1440" height="1494" fill="url(#paint0_linear_1_931)"/>
<g clip-path="url(#clip1_1_931)">
<g opacity="0.2">
<rect width="48" height="48" rx="16" stroke="#1565D8"/>
</g>
<path fill-rule="evenodd" clip-rule="evenodd" d="M13.92 12.24H20.64C21.5678 12.24 22.32 12.9922 22.32 13.92V20.64C22.32 21.5678 21.5678 22.32 20.64 22.32H13.92C12.9922 22.32 12.24 21.5678 12.24 20.64V13.92C12.24 12.9922 12.9922 12.24 13.92 12.24ZM27.36 25.68H34.08C35.0078 25.68 35.76 26.4322 35.76 27.36V34.08C35.76 35.0078 35.0078 35.76 34.08 35.76H27.36C26.4322 35.76 25.68 35.0078 25.68 34.08V27.36C25.68 26.4322 26.4322 25.68 27.36 25.68Z" fill="#1565D8"/>
<path opacity="0.3" fill-rule="evenodd" clip-rule="evenodd" d="M27.36 12.24H34.08C35.0078 12.24 35.76 12.9922 35.76 13.92V20.64C35.76 21.5678 35.0078 22.32 34.08 22.32H27.36C26.4322 22.32 25.68 21.5678 25.68 20.64V13.92C25.68 12.9922 26.4322 12.24 27.36 12.24ZM13.92 25.68H20.64C21.5678 25.68 22.32 26.4322 22.32 27.36V34.08C22.32 35.0078 21.5678 35.76 20.64 35.76H13.92C12.9922 35.76 12.24 35.0078 12.24 34.08V27.36C12.24 26.4322 12.9922 25.68 13.92 25.68Z" fill="#1565D8"/>
</g>
</g>
<defs>
<linearGradient id="paint0_linear_1_931" x1="-930" y1="-1020" x2="-930" y2="474" gradientUnits="userSpaceOnUse">
<stop stop-color="#F8FBFF"/>
<stop offset="1" stop-color="#FAFBFB" stop-opacity="0.01"/>
</linearGradient>
<clipPath id="clip0_1_931">
<rect width="1440" height="7679" fill="white" transform="translate(-930 -2990)"/>
</clipPath>
<clipPath id="clip1_1_931">
<rect width="360" height="133" fill="white"/>
</clipPath>
</defs>
</svg>
