<svg width="16" height="16" viewBox="0 0 16 16" fill="none" xmlns="http://www.w3.org/2000/svg">
<rect width="16" height="16" fill="#F5F5F5"/>
<g clip-path="url(#clip0_1_931)">
<rect width="1440" height="7679" transform="translate(-362 -5588)" fill="white"/>
<g clip-path="url(#clip1_1_931)">
<g clip-path="url(#clip2_1_931)">
<g clip-path="url(#clip3_1_931)">
<path opacity="0.15" fill-rule="evenodd" clip-rule="evenodd" d="M8 16C12.4183 16 16 12.4183 16 8C16 3.58172 12.4183 0 8 0C3.58172 0 0 3.58172 0 8C0 12.4183 3.58172 16 8 16Z" fill="#36B37E"/>
<path d="M6.93228 10.5495L4.7578 8.38801C4.69704 8.32725 4.66666 8.24913 4.66666 8.15364C4.66666 8.05815 4.69704 7.98003 4.7578 7.91927L5.23957 7.45052C5.30034 7.38107 5.37629 7.34635 5.46744 7.34635C5.55858 7.34635 5.63888 7.38107 5.70832 7.45052L7.16665 8.90885L10.2916 5.78385C10.3611 5.71441 10.4414 5.67969 10.5325 5.67969C10.6237 5.67969 10.6996 5.71441 10.7604 5.78385L11.2422 6.2526C11.3029 6.31337 11.3333 6.39149 11.3333 6.48698C11.3333 6.58246 11.3029 6.66059 11.2422 6.72135L7.40103 10.5495C7.34026 10.6189 7.26214 10.6536 7.16665 10.6536C7.07116 10.6536 6.99304 10.6189 6.93228 10.5495Z" fill="#36B37E"/>
</g>
</g>
</g>
</g>
<defs>
<clipPath id="clip0_1_931">
<rect width="1440" height="7679" fill="white" transform="translate(-362 -5588)"/>
</clipPath>
<clipPath id="clip1_1_931">
<rect width="1140" height="475" fill="white" transform="translate(-212 -442)"/>
</clipPath>
<clipPath id="clip2_1_931">
<rect width="184" height="45" fill="white" transform="translate(-52 -28)"/>
</clipPath>
<clipPath id="clip3_1_931">
<rect width="132" height="19" fill="white" transform="translate(0 -2)"/>
</clipPath>
</defs>
</svg>
