<svg width="128" height="128" viewBox="0 0 128 128" fill="none" xmlns="http://www.w3.org/2000/svg">
<g filter="url(#filter0_d_1_2303)">
<path fill-rule="evenodd" clip-rule="evenodd" d="M64 87C84.9868 87 102 69.9868 102 49C102 28.0132 84.9868 11 64 11C43.0132 11 26 28.0132 26 49C26 69.9868 43.0132 87 64 87Z" fill="white"/>
<path fill-rule="evenodd" clip-rule="evenodd" d="M64 87C84.9868 87 102 69.9868 102 49C102 28.0132 84.9868 11 64 11C43.0132 11 26 28.0132 26 49C26 69.9868 43.0132 87 64 87Z" stroke="white" stroke-width="2"/>
</g>
<path fill-rule="evenodd" clip-rule="evenodd" d="M64.0022 69V61.2482C72.2116 61.2482 78.5842 53.1111 75.4318 44.4752C74.2753 41.2794 71.7127 38.7181 68.5151 37.5621C59.8747 34.4343 51.7332 40.7807 51.7332 48.9858H44C44 35.9075 56.6544 25.7077 70.3747 29.9916C76.3616 31.8729 81.1467 36.6328 83.0064 42.6166C87.2925 56.3524 77.11 69 64.0022 69Z" fill="#0080FF"/>
<path fill-rule="evenodd" clip-rule="evenodd" d="M56.3142 61.2708H64.0247V53.5642H56.3142V61.2708ZM50.3727 67.2095H56.3142V61.2709H50.3727L50.3727 67.2095ZM45.407 61.2706H50.3737V56.3068H45.407V61.2706Z" fill="#0080FF"/>
<defs>
<filter id="filter0_d_1_2303" x="0" y="0" width="128" height="128" filterUnits="userSpaceOnUse" color-interpolation-filters="sRGB">
<feFlood flood-opacity="0" result="BackgroundImageFix"/>
<feColorMatrix in="SourceAlpha" type="matrix" values="0 0 0 0 0 0 0 0 0 0 0 0 0 0 0 0 0 0 127 0" result="hardAlpha"/>
<feOffset dy="15"/>
<feGaussianBlur stdDeviation="12.5"/>
<feColorMatrix type="matrix" values="0 0 0 0 0 0 0 0 0 0 0 0 0 0 0 0 0 0 0.06 0"/>
<feBlend mode="normal" in2="BackgroundImageFix" result="effect1_dropShadow_1_2303"/>
<feBlend mode="normal" in="SourceGraphic" in2="effect1_dropShadow_1_2303" result="shape"/>
</filter>
</defs>
</svg>
