<svg width="108" height="108" viewBox="0 0 108 108" fill="none" xmlns="http://www.w3.org/2000/svg">
<g filter="url(#filter0_d_1_2327)">
<path fill-rule="evenodd" clip-rule="evenodd" d="M54 73C71.6731 73 86 58.6731 86 41C86 23.3269 71.6731 9 54 9C36.3269 9 22 23.3269 22 41C22 58.6731 36.3269 73 54 73Z" fill="white"/>
<path fill-rule="evenodd" clip-rule="evenodd" d="M54 73C71.6731 73 86 58.6731 86 41C86 23.3269 71.6731 9 54 9C36.3269 9 22 23.3269 22 41C22 58.6731 36.3269 73 54 73Z" stroke="white" stroke-width="1.68421"/>
</g>
<path fill-rule="evenodd" clip-rule="evenodd" d="M52.1944 59H50.1798H38.9444C37.3173 59 36 57.6851 36 56.0606V49.7174C36 48.0929 37.3173 46.7778 38.9444 46.7778H47.3129V37.4952C47.3129 35.8707 48.6301 34.5557 50.2573 34.5557H59.5555V58.9228H52.1944V59Z" fill="#FFC517"/>
<path fill-rule="evenodd" clip-rule="evenodd" d="M69.0071 59H59.5557V25.961C59.5557 24.3247 60.8947 23 62.5487 23H69.0071C70.6612 23 72.0002 24.3247 72.0002 25.961V56.039C71.9213 57.6754 70.5825 59 69.0071 59Z" fill="#F57E02"/>
<path fill-rule="evenodd" clip-rule="evenodd" d="M72.0002 46.7778V56.0606C72.0002 57.6851 70.6613 59 69.0073 59H59.5557V34.5557L72.0002 46.7778Z" fill="url(#paint0_linear_1_2327)"/>
<defs>
<filter id="filter0_d_1_2327" x="0.157898" y="0.157837" width="107.684" height="107.684" filterUnits="userSpaceOnUse" color-interpolation-filters="sRGB">
<feFlood flood-opacity="0" result="BackgroundImageFix"/>
<feColorMatrix in="SourceAlpha" type="matrix" values="0 0 0 0 0 0 0 0 0 0 0 0 0 0 0 0 0 0 127 0" result="hardAlpha"/>
<feOffset dy="13"/>
<feGaussianBlur stdDeviation="10.5"/>
<feColorMatrix type="matrix" values="0 0 0 0 0 0 0 0 0 0 0 0 0 0 0 0 0 0 0.06 0"/>
<feBlend mode="normal" in2="BackgroundImageFix" result="effect1_dropShadow_1_2327"/>
<feBlend mode="normal" in="SourceGraphic" in2="effect1_dropShadow_1_2327" result="shape"/>
</filter>
<linearGradient id="paint0_linear_1_2327" x1="59.5971" y1="71.165" x2="72.0121" y2="71.165" gradientUnits="userSpaceOnUse">
<stop stop-color="#E96F0B"/>
<stop offset="1" stop-color="#F37901"/>
</linearGradient>
</defs>
</svg>
