<svg width="128" height="128" viewBox="0 0 128 128" fill="none" xmlns="http://www.w3.org/2000/svg">
<g filter="url(#filter0_d_1_2314)">
<path fill-rule="evenodd" clip-rule="evenodd" d="M64 87C84.9868 87 102 69.9868 102 49C102 28.0132 84.9868 11 64 11C43.0132 11 26 28.0132 26 49C26 69.9868 43.0132 87 64 87Z" fill="white"/>
<path fill-rule="evenodd" clip-rule="evenodd" d="M64 87C84.9868 87 102 69.9868 102 49C102 28.0132 84.9868 11 64 11C43.0132 11 26 28.0132 26 49C26 69.9868 43.0132 87 64 87Z" stroke="white" stroke-width="2"/>
</g>
<path fill-rule="evenodd" clip-rule="evenodd" d="M75.8585 36.4538C76.0107 36.4538 76.1628 36.5823 76.1933 36.7751C76.2237 37 80.3333 66.3333 80.3333 66.3333L68.6133 69L47 64.7268C47 64.7268 49.7702 42.0763 49.8919 41.3052C50.0137 40.245 50.0441 40.2128 51.1096 39.8594C51.2618 39.7952 52.6317 39.3454 54.519 38.7349C55.2496 35.4578 57.5936 29 62.4947 29C63.134 29 63.8645 29.3534 64.4733 30.1888H64.656C66.7565 30.1888 67.9437 32.0843 68.6133 34.1406C69.2832 33.9157 69.7093 33.7871 69.7397 33.7871C69.892 33.7229 70.3485 33.6586 70.5617 33.8835C70.8052 34.1084 72.8143 36.2289 72.8143 36.2289C72.8143 36.2289 75.7062 36.4538 75.8585 36.4538ZM66.3 34.8946C66.6888 34.7666 67.0542 34.6464 67.3958 34.5262C66.9392 33.0162 66.2392 31.7311 65.1432 31.6025C65.3867 32.4058 65.5693 33.4339 65.5693 34.719V35.1367C65.8212 35.0521 66.0645 34.9721 66.2992 34.8948L66.2998 34.8946H66.3ZM63.8037 31.8272C64.108 32.6304 64.2907 33.7549 64.2907 35.297V35.5219C63.7918 35.6839 63.2717 35.8516 62.741 36.0225C62.009 36.2584 61.2573 36.5006 60.516 36.7428C61.2465 33.8191 62.6165 32.3733 63.8037 31.8272ZM62.9817 30.6063C62.7685 30.4457 62.5555 30.3814 62.3423 30.3814C58.8416 30.3814 56.8629 35.2328 56.041 38.2208C56.9847 37.9316 57.9893 37.6103 59.0243 37.2569C59.7244 33.3373 61.4292 31.3774 62.9817 30.6063Z" fill="#95BF47"/>
<path d="M75.8585 36.4538C75.7063 36.4538 72.8143 36.2289 72.8143 36.2289C72.8143 36.2289 70.8052 34.1085 70.5617 33.8836C70.4703 33.7872 70.379 33.755 70.2572 33.7229L68.6133 69L80.3333 66.3333C80.3333 66.3333 76.2238 37 76.1933 36.8072C76.1628 36.5823 75.9802 36.486 75.8585 36.4538Z" fill="#5E8E3E"/>
<path d="M64.6255 43.2974L63.1948 47.8275C63.1948 47.8275 61.9163 47.1207 60.3942 47.1207C58.1111 47.1207 58.0198 48.6307 58.0198 49.0162C58.0198 51.0725 63.134 51.8757 63.134 56.7272C63.134 60.5504 60.8508 62.9922 57.7458 62.9922C54.032 62.9922 52.1446 60.5504 52.1446 60.5504L53.1492 57.0805C53.1492 57.0805 55.0974 58.8475 56.7412 58.8475C57.8067 58.8475 58.2633 57.948 58.2633 57.3054C58.2633 54.6067 54.0624 54.4782 54.0624 50.0444C54.0624 46.3175 56.589 42.687 61.7337 42.687C63.6515 42.687 64.6255 43.2974 64.6255 43.2974Z" fill="white"/>
<defs>
<filter id="filter0_d_1_2314" x="0" y="0" width="128" height="128" filterUnits="userSpaceOnUse" color-interpolation-filters="sRGB">
<feFlood flood-opacity="0" result="BackgroundImageFix"/>
<feColorMatrix in="SourceAlpha" type="matrix" values="0 0 0 0 0 0 0 0 0 0 0 0 0 0 0 0 0 0 127 0" result="hardAlpha"/>
<feOffset dy="15"/>
<feGaussianBlur stdDeviation="12.5"/>
<feColorMatrix type="matrix" values="0 0 0 0 0 0 0 0 0 0 0 0 0 0 0 0 0 0 0.06 0"/>
<feBlend mode="normal" in2="BackgroundImageFix" result="effect1_dropShadow_1_2314"/>
<feBlend mode="normal" in="SourceGraphic" in2="effect1_dropShadow_1_2314" result="shape"/>
</filter>
</defs>
</svg>
